<svg width="1041.32" height="554.17" xmlns="http://www.w3.org/2000/svg" data-name="Layer 1">
 <title>programmer</title>

 <g>
  <title>Layer 1</title>
  <path id="svg_1" fill="#f2f2f2" d="m964.48,438.21q-1.74,3.75 -3.47,7.4q-2.7,5.67 -5.33,11.12c-0.78,1.61 -1.56,3.19 -2.32,4.77c-8.6,17.57 -16.63,33.11 -23.45,45.89a73.21,73.21 0 0 1 -63.81,38.7l-151.65,1.65l-1.6,0l-13,0.14l-11.12,0.12l-34.1,0.37l-1.38,0l-17.36,0.19l-0.53,0l-107,1.16l-95.51,1l-11.11,0.12l-69,0.75l-0.08,0l-44.75,0.48l-0.48,0l-141.5,1.53l-42.33,0.46a88,88 0 0 1 -10.79,-0.54l0,0c-1.22,-0.14 -2.44,-0.3 -3.65,-0.49a87.38,87.38 0 0 1 -51.29,-27.54c-18.21,-20.03 -31.46,-43.4 -40.36,-68.76q-1.93,-5.49 -3.6,-11.12c-30.81,-104.15 6.75,-238.52 74.35,-328.44q4.25,-5.64 8.64,-11l0.07,-0.08c20.79,-25.52 44.1,-46.84 68.93,-62c44,-26.91 92.75,-34.49 140.7,-11.9c40.57,19.12 78.45,28.11 115.17,30.55c3.71,0.24 7.42,0.42 11.11,0.53c84.23,2.65 163.17,-27.7 255.87,-47.29c3.69,-0.78 7.39,-1.55 11.12,-2.28c66.13,-13.16 139.49,-20.1 226.73,-5.51a189.09,189.09 0 0 1 26.76,6.4q5.77,1.86 11.12,4c41.64,16.94 64.35,48.24 74,87.46q1.37,5.46 2.37,11.11c17.11,94.34 -33,228.16 -76.37,321.05z"/>
  <path id="svg_2" opacity="0.1" d="m497.02,445.61a95.22,95.22 0 0 1 -1.87,11.12l93.7,0l0,-11.12l-91.83,0zm-78.25,62.81l11.11,-0.09l0,-27.47c-3.81,-0.17 -7.52,-0.34 -11.11,-0.52l0,28.08zm-232.92,-62.81l0,11.12l198.5,0l0,-11.12l-198.5,0zm849.68,-339.52l-74,0l0,-87.49q-5.35,-2.17 -11.12,-4l0,91.49l-253.54,0l0,-92.42c-3.73,0.73 -7.43,1.5 -11.12,2.28l0,90.14l-255.87,0l0,-42.85c-3.69,-0.11 -7.4,-0.29 -11.11,-0.53l0,43.38l-255.87,0l0,-62c-24.83,15.16 -48.14,36.48 -68.93,62l-0.07,0l0,0.08q-4.4,5.4 -8.64,11l8.64,0l0,328.44l-83,0q1.66,5.63 3.6,11.12l79.39,0l0,93.62a87,87 0 0 0 12.2,2.79c1.21,0.19 2.43,0.35 3.65,0.49l0,0a88,88 0 0 0 10.79,0.54l42.33,-0.46l0,-97l255.91,0l0,94.21l11.11,-0.12l0,-94.07l255.87,0l0,91.36l11.12,-0.12l0,-91.24l253.49,0l0,4.77c0.76,-1.58 1.54,-3.16 2.32,-4.77q2.63,-5.45 5.33,-11.12q1.73,-3.64 3.47,-7.4l0,-321l76.42,0q-1.01,-5.69 -2.37,-11.12zm-872.63,339.52l0,-328.44l255.87,0l0,328.44l-255.87,0zm267,0l0,-328.44l255.85,0l0,328.44l-255.85,0zm520.48,0l-253.51,0l0,-328.44l253.49,0l0.02,328.44z"/>
  <path id="svg_36" fill="#f2f2f2" d="m300.26,333.59l-99.6,0a0.5,0.5 0 0 1 0,-1l99.6,0a0.5,0.5 0 0 1 0,1z"/>
  <path id="svg_37" fill="#f2f2f2" d="m300.26,342.59l-99.6,0a0.5,0.5 0 0 1 0,-1l99.6,0a0.5,0.5 0 0 1 0,1z"/>
  <path id="svg_38" fill="#f2f2f2" d="m300.26,351.59l-99.6,0a0.5,0.5 0 0 1 0,-1l99.6,0a0.5,0.5 0 0 1 0,1z"/>
  <text font-style="normal" font-weight="normal" transform="matrix(1.90021 0 0 1.85374 -204.362 -67.2353)" stroke="null" xml:space="preserve" text-anchor="start" font-family="'Calistoga'" font-size="116" stroke-width="0" fill="#ffb81c" id="svg_39" y="228.97951" x="327.36982">Chat</text>
  <text transform="matrix(2.22577 0 0 2.01678 -342.186 -71.5197)" stroke="null" xml:space="preserve" text-anchor="start" font-family="'Calistoga'" font-size="116" id="svg_41" y="213.93714" x="263.89216" stroke-width="0" fill="#2774ae">U</text>
 </g>
</svg>